<?xml version="1.0" standalone="no"?>
<!DOCTYPE svg PUBLIC "-//W3C//DTD SVG 20010904//EN"
 "http://www.w3.org/TR/2001/REC-SVG-20010904/DTD/svg10.dtd">
<svg version="1.0" xmlns="http://www.w3.org/2000/svg"
 width="900.000000pt" height="900.000000pt" viewBox="0 0 900.000000 900.000000"
 preserveAspectRatio="xMidYMid meet">
<metadata>
Created by potrace 1.11, written by Peter Selinger 2001-2013
</metadata>
<g transform="translate(0.000000,900.000000) scale(0.100000,-0.100000)"
fill="#000000" stroke="none">
<path d="M4055 8989 c-922 -101 -1747 -454 -2460 -1053 -288 -243 -611 -603
-825 -921 -740 -1099 -960 -2478 -599 -3749 179 -628 488 -1206 917 -1711 179
-211 485 -497 717 -671 621 -466 1363 -771 2119 -869 101 -13 121 -13 135 -1
9 7 95 78 191 157 96 80 216 178 265 219 50 41 150 124 223 184 73 60 132 109
132 110 0 1 -154 1 -342 1 -377 0 -479 9 -763 66 -1044 212 -1964 860 -2516
1774 -716 1187 -731 2668 -39 3870 288 500 688 931 1165 1254 159 107 284 181
442 261 70 35 148 84 189 117 38 32 143 119 234 194 181 148 932 769 939 775
6 5 -27 3 -124 -7z"/>
<path d="M4624 8682 c-204 -169 -390 -323 -413 -342 l-41 -35 342 0 c359 0
435 -6 703 -56 1070 -198 2010 -852 2581 -1795 284 -470 462 -1011 526 -1594
16 -148 16 -593 0 -735 -58 -508 -178 -917 -396 -1349 -371 -735 -985 -1345
-1716 -1703 -96 -47 -139 -80 -500 -378 -217 -180 -495 -410 -618 -511 l-223
-184 59 0 c84 0 322 33 499 69 1273 261 2375 1062 3025 2201 246 430 409 879
515 1415 l28 140 3 632 c3 600 2 639 -18 760 -212 1309 -998 2467 -2140 3153
-282 170 -659 339 -965 435 -253 78 -621 158 -830 178 l-50 5 -371 -306z"/>
<path d="M3041 4957 c-144 -906 -216 -1359 -291 -1817 -11 -69 -20 -128 -20
-132 0 -5 154 -8 343 -8 l343 0 48 363 c26 199 56 423 66 497 11 74 40 293 65
485 53 408 55 419 65 408 4 -4 39 -84 77 -178 65 -157 163 -391 445 -1060 60
-143 133 -317 161 -388 l52 -127 124 2 124 3 179 425 c98 234 192 457 208 495
51 125 257 614 337 804 8 18 16 31 18 29 3 -2 23 -141 45 -309 39 -289 53
-392 99 -749 12 -85 37 -272 56 -415 19 -143 35 -266 35 -272 0 -10 76 -13
345 -13 l346 0 -6 33 c-3 17 -46 286 -96 597 -49 311 -108 678 -130 815 -22
138 -51 320 -64 405 -14 85 -41 254 -60 375 -19 121 -42 263 -50 315 -8 52
-28 174 -43 270 l-28 175 -288 0 -287 0 -260 -625 c-143 -344 -294 -706 -335
-805 -41 -99 -90 -215 -107 -257 -18 -43 -34 -78 -37 -78 -5 0 -55 119 -475
1130 -125 300 -236 566 -247 593 l-20 47 -287 0 -286 0 -164 -1033z"/>
</g>
</svg>
